<svg xmlns="http://www.w3.org/2000/svg" enable-background="new 0 0 130 130" viewBox="0 0 130 130"><circle cx="65" cy="65" r="64" fill="#168DE2"/><path fill="#2E6BCE" d="M100.29789 19.70669c-.55518 0-1.00513-.45001-1.00513-1.00519s.44995-1.00525 1.00513-1.00525h7.8103c.71777.65454 1.42139 1.32428 2.10864 2.01044H100.29789zM91.20071 18.70158c0 .55517.45005 1.00522 1.00522 1.00522l4.12341 0c.55278 0 1.00515-.45233 1.00515-1.0052s-.45237-1.00524-1.00515-1.00524l-4.12341 0C91.65076 17.69636 91.20071 18.14641 91.20071 18.70158L91.20071 18.70158zM26.08986 77.68465c0-.55517-.45005-1.00522-1.00522-1.00522L9.07737 76.67942c-.55296 0-1.00515.45237-1.00515 1.00524s.45219 1.0052 1.00515 1.0052l16.00727.00001C25.6398 78.68987 26.08986 78.23981 26.08986 77.68465L26.08986 77.68465zM27.65119 77.68465L27.65119 77.68465c0 .55517.45005 1.00522 1.00522 1.00522h4.80804c.55516 0 1.00522-.45005 1.00522-1.00522l0 0c0-.55517-.45005-1.00522-1.00522-1.00522h-4.80804C28.10124 76.67943 27.65119 77.12948 27.65119 77.68465zM112.41075 51.61381c0-.55516-.45006-1.00521-1.00522-1.00521l-10.75727-.00001c-.55296 0-1.00515.45237-1.00515 1.00524 0 .55287.45219 1.0052 1.00515 1.0052l10.75727 0C111.96069 52.61903 112.41075 52.16898 112.41075 51.61381L112.41075 51.61381zM113.97208 51.61382L113.97208 51.61382c0 .55517.45005 1.00522 1.00522 1.00522h4.80804c.55517 0 1.00522-.45005 1.00522-1.00522l0 0c0-.55517-.45005-1.00522-1.00522-1.00522h-4.80804C114.42213 50.6086 113.97208 51.05865 113.97208 51.61382zM89.60892 124.08773h-4.52295c-.55518 0-1.00513-.45007-1.00513-1.00519v-.00006c0-.55518.44995-1.00519 1.00513-1.00519h8.85034C92.52128 122.79617 91.08207 123.47341 89.60892 124.08773zM71.99117 122.07726h8.95542c.55516 0 1.00522.45005 1.00522 1.00522l0 0c0 .55517-.45006 1.00522-1.00522 1.00522h-8.95542c-.55296 0-1.00533-.45238-1.00533-1.00524C70.98584 122.52959 71.43821 122.07726 71.99117 122.07726zM45.70187 110.98941H32.95183c-.55516 0-1.00525.45006-1.00529 1.00522v.00001c-.00004.55516.44997 1.00522 1.00513 1.00521h12.75004c.55296 0 1.00518-.45237 1.00523-1.00524C46.70699 111.44173 46.25483 110.98941 45.70187 110.98941zM29.33399 111.99463c.00005-.55516-.44997-1.00521-1.00513-1.00521h-1.0803c-.55513 0-1.00518.45006-1.00523 1.0052-.00004.55518.44993 1.00524 1.00507 1.00524h1.08029C28.88386 112.99986 29.33394 112.5498 29.33399 111.99463L29.33399 111.99463zM55.77291 6.9903l12.75005 0c.55516 0 1.00525.45005 1.00529 1.00522v0c.00005.55517-.44997 1.00522-1.00513 1.00522l-12.75004 0c-.55296 0-1.00518-.45237-1.00523-1.00524S55.21996 6.9903 55.77291 6.9903zM32.22271 21.65024h12.75004c.55516 0 1.00525.45005 1.00529 1.00522v0c.00005.55517-.44997 1.00522-1.00513 1.00522l-12.75004 0c-.55296 0-1.00518-.45237-1.00523-1.00524C31.2176 22.10256 31.66975 21.65024 32.22271 21.65024zM72.1408 7.99552c-.00005-.55517.44997-1.00522 1.00513-1.00522h1.08029c.55514 0 1.00519.45006 1.00523 1.0052.00005.55518-.44994 1.00524-1.00507 1.00524h-1.0803C72.59093 9.00074 72.14085 8.55069 72.1408 7.99552L72.1408 7.99552zM118.63518 92.57455l-12.75004-.00001c-.55517 0-1.00526-.45005-1.00529-1.00522l0 0c-.00005-.55517.44997-1.00522 1.00513-1.00522l12.75004.00001c.55296 0 1.00519.45237 1.00523 1.00524C119.64029 92.12222 119.18813 92.57455 118.63518 92.57455zM102.26729 91.56932c.00005.55517-.44997 1.00522-1.00513 1.00522h-1.08029c-.55513 0-1.00518-.45007-1.00523-1.0052-.00005-.55518.44993-1.00524 1.00507-1.00524h1.08029C101.81716 90.5641 102.26725 91.01415 102.26729 91.56932L102.26729 91.56932zM19.78518 37.66847L19.78518 37.66847c0-.55517-.45005-1.00522-1.00522-1.00522h-1.67143c-.55517 0-1.00522.45005-1.00522 1.00521v0c0 .55517.45005 1.00522 1.00522 1.00522h1.67143C19.33513 38.67368 19.78518 38.22363 19.78518 37.66847zM12.43852 38.67366H6.66801c.30518-.67554.61621-1.3476.94409-2.01044h4.82642c.55518 0 1.00537.45007 1.00537 1.00525S12.99369 38.67366 12.43852 38.67366z"/><path fill="#2E6BCE" d="M107.03499,30.68451v71.48453c0,2.68398-2.1758,4.85978-4.85978,4.85978H30.67814
		c-2.68398,0-4.85978-2.1758-4.85978-4.85978V30.68451c0-2.68398,2.1758-4.85978,4.85978-4.85978h71.49707
		C104.85919,25.82473,107.03499,28.00053,107.03499,30.68451z"/><path fill="#FFF" d="M105.60831,29.25783v71.48453c0,2.68398-2.1758,4.85978-4.85978,4.85978H29.25147
		c-2.68398,0-4.85978-2.1758-4.85978-4.85978V29.25783c0-2.68398,2.1758-4.85978,4.85978-4.85978h71.49707
		C103.43252,24.39805,105.60831,26.57385,105.60831,29.25783z"/><path fill="#EDEDED" d="M105.60697,29.25584v71.48999c0,2.67993-2.16992,4.86011-4.85986,4.86011h-71.5
		c-2.16016,0-4-1.42017-4.63013-3.37012c0.46997,0.16003,0.97998,0.23999,1.51001,0.23999h71.5
		c2.67993,0,4.86011-2.16992,4.86011-4.85999V26.13585c0-0.52991-0.08008-1.02991-0.23999-1.5
		C104.19706,25.26585,105.60697,27.09593,105.60697,29.25584z"/><g><path fill="#EDEDED" d="M99.70976 39.14465H30.29024c-.39434 0-.71343-.31944-.71343-.71343s.31909-.71343.71343-.71343h69.41953c.39434 0 .71343.31944.71343.71343S100.1041 39.14465 99.70976 39.14465zM99.70976 48.00089H30.29024c-.39434 0-.71343-.31944-.71343-.71343s.31909-.71343.71343-.71343h69.41953c.39434 0 .71343.31944.71343.71343S100.1041 48.00089 99.70976 48.00089zM99.70976 56.85712H30.29024c-.39434 0-.71343-.31944-.71343-.71343s.31909-.71343.71343-.71343h69.41953c.39434 0 .71343.31944.71343.71343S100.1041 56.85712 99.70976 56.85712zM99.70976 65.7137H30.29024c-.39434 0-.71343-.31944-.71343-.71343s.31909-.71343.71343-.71343h69.41953c.39434 0 .71343.31944.71343.71343S100.1041 65.7137 99.70976 65.7137zM99.70976 74.56993H30.29024c-.39434 0-.71343-.31944-.71343-.71342s.31909-.71343.71343-.71343h69.41953c.39434 0 .71343.31944.71343.71343S100.1041 74.56993 99.70976 74.56993zM99.70976 83.42617H30.29024c-.39434 0-.71343-.31944-.71343-.71343s.31909-.71343.71343-.71343h69.41953c.39434 0 .71343.31944.71343.71343S100.1041 83.42617 99.70976 83.42617zM99.70976 92.28275H30.29024c-.39434 0-.71343-.31944-.71343-.71343s.31909-.71343.71343-.71343h69.41953c.39434 0 .71343.31944.71343.71343S100.1041 92.28275 99.70976 92.28275z"/><g><path fill="#EDEDED" d="M91.5687 100.42311c-.39434 0-.71343-.31944-.71343-.71342V30.29051c0-.39399.31909-.71343.71343-.71343s.71343.31944.71343.71343v69.41918C92.28214 100.10368 91.96304 100.42311 91.5687 100.42311zM82.71281 100.42311c-.39433 0-.71343-.31944-.71343-.71342V30.29051c0-.39399.3191-.71343.71343-.71343.39434 0 .71343.31944.71343.71343v69.41918C83.42625 100.10368 83.10715 100.42311 82.71281 100.42311zM73.85623 100.42311c-.39433 0-.71343-.31944-.71343-.71342V30.29051c0-.39399.3191-.71343.71343-.71343.39434 0 .71343.31944.71343.71343v69.41918C74.56966 100.10368 74.25057 100.42311 73.85623 100.42311zM64.99965 100.42311c-.39433 0-.71343-.31944-.71343-.71342V30.29051c0-.39399.3191-.71343.71343-.71343.39434 0 .71343.31944.71343.71343v69.41918C65.71308 100.10368 65.39399 100.42311 64.99965 100.42311zM56.14376 100.42311c-.39434 0-.71343-.31944-.71343-.71342V30.29051c0-.39399.31909-.71343.71343-.71343.39434 0 .71343.31944.71343.71343v69.41918C56.8572 100.10368 56.53811 100.42311 56.14376 100.42311zM47.28719 100.42311c-.39434 0-.71343-.31944-.71343-.71342V30.29051c0-.39399.31909-.71343.71343-.71343.39434 0 .71343.31944.71343.71343v69.41918C48.00061 100.10368 47.68152 100.42311 47.28719 100.42311zM38.4306 100.42311c-.39434 0-.71343-.31944-.71343-.71342V30.29051c0-.39399.31909-.71343.71343-.71343.39434 0 .71343.31944.71343.71343v69.41918C39.14403 100.10368 38.82494 100.42311 38.4306 100.42311z"/></g></g><g><path fill="#F34B50" d="M99.3846,49.36552l-1.77425,7.6638c-0.19979,0.84713-1.25451,1.15071-1.86986,0.53536l-1.53429-1.53428
				L77.7599,72.4767c-0.75114,0.75114-2.07784,0.75114-2.82098,0l-9.38986-9.38986L55.54383,73.09196
				c-0.37557,0.37567-0.88713,0.58345-1.41449,0.58345c-0.52736,0-1.03892-0.20778-1.41449-0.58345l-4.12348-4.12357
				l-6.03353,6.03352c-0.39157,0.39157-0.90313,0.59135-1.41449,0.59135c-0.51136,0-1.02292-0.19978-1.41449-0.59135
				c-0.78314-0.77514-0.78314-2.04584,0-2.82098l7.44802-7.45592c0.37557-0.37567,0.88693-0.58346,1.41449-0.58346
				c0.53536,0,1.03892,0.20779,1.41449,0.58346l4.12348,4.12357l10.00521-9.99722c0.78314-0.78314,2.04584-0.78314,2.82098,0
				l9.38987,9.38187l15.03182-15.03182l-1.53448-1.53428c-0.61516-0.61535-0.31158-1.67027,0.53555-1.87005l7.6636-1.76606
				C98.84904,47.84723,99.56838,48.56638,99.3846,49.36552z"/></g><g><path fill="#E53946" d="M47.98402 68.36103l.60735.60735-6.03353 6.03352c-.39157.39157-.90313.59135-1.41449.59135-.51136 0-1.02292-.19978-1.41449-.59135-.10379-.10389-.19178-.21578-.27177-.33558.32777.21569.70334.31958 1.07891.31958.51156 0 1.02292-.19978 1.41449-.59135L47.98402 68.36103zM64.9417 62.47948l.60735.60735L55.54383 73.09196c-.37557.37567-.88713.58345-1.41449.58345-.52736 0-1.03892-.20778-1.41449-.58345L52.1075 72.4846c.37557.37567.88713.58345 1.41449.58345.52756 0 1.03892-.20778 1.41449-.58345L64.9417 62.47948zM93.59866 55.42304l.60754.60735L77.7599 72.4767c-.75114.75114-2.07784.75114-2.82098 0l-.60735-.60735c.74315.75114 2.06984.75114 2.82098 0L93.59866 55.42304zM99.3846 49.36552l-1.77425 7.6638c-.19979.84713-1.25451 1.15071-1.86986.53536l-.60735-.60735c.61535.61535 1.67027.31178 1.87005-.53536l1.77406-7.6638c.0558-.23968.0318-.46337-.048-.67115C99.20081 48.2948 99.51239 48.80616 99.3846 49.36552z"/></g></svg>